<svg xmlns="http://www.w3.org/2000/svg" viewBox="0 0 1024 1024"><path d="M512 0C229.2 0 0 229.2 0 512c0 226.2 146.7 418.1 350.2 485.8 25.6 4.7 34.9-11.1 34.9-24.6 0-12.2-.5-52.6-.7-95.3-142.4 30.9-172.5-60.4-172.5-60.4-23.3-59.1-56.8-74.9-56.8-74.9-46.5-31.8 3.5-31.1 3.5-31.1 51.4 3.6 78.5 52.8 78.5 52.8 45.7 78.2 119.9 55.6 149 42.5 4.7-33 17.9-55.6 32.5-68.4-113.7-12.9-233.2-56.9-233.2-253.1 0-55.9 20-101.6 52.7-137.4-5.2-13-22.8-65.1 5.1-135.6 0 0 42.9-13.8 140.8 52.5 40.8-11.4 84.6-17 128.1-17.2 43.5.2 87.3 5.9 128.2 17.3C738 198.6 781 212.4 781 212.4c28 70.5 10.4 122.6 5.1 135.5 32.8 35.8 52.6 81.5 52.6 137.4 0 196.7-119.8 240-233.8 252.7 18.4 15.9 34.8 47 34.8 94.8 0 68.4-.7 123.6-.7 140.5 0 13.6 9.3 29.6 35.2 24.6C877.4 930 1024 738.1 1024 512 1024 229.2 794.8 0 512 0z" fill="#fff"/></svg>